<svg width="1024" height="1024" viewBox="0 0 1024 1024" fill="none" xmlns="http://www.w3.org/2000/svg">
<rect width="1024" height="1024" rx="272" fill="#1C1C1C"/>
<path d="M636.501 379.49C729.576 386.096 803.03 463.505 803.031 558.055V606.051C803.03 726.383 709.247 824.708 590.859 832.579V864.836C590.859 878.327 579.898 889.263 566.377 889.263C552.857 889.263 541.896 878.327 541.896 864.836V832.823L492.933 832.42V864.836C492.933 878.327 481.972 889.263 468.452 889.263C454.931 889.263 443.97 878.327 443.97 864.836V832.012L250.626 830.416L636.501 379.49Z" fill="#94DD78"/>
<path d="M560.937 134.737C574.458 134.737 585.418 145.673 585.418 159.164V191.983L752.852 193.371L369.527 641.313C287.815 624.577 226.36 552.432 226.357 465.95V417.955C226.357 297.62 320.141 199.287 438.53 191.415V159.164C438.53 145.673 449.491 134.737 463.011 134.737C476.532 134.737 487.493 145.673 487.493 159.164V191.177L536.456 191.58V159.164C536.456 145.673 547.416 134.737 560.937 134.737Z" fill="#94DD78"/>
</svg>
