<svg width="3479" height="1024" viewBox="0 0 3479 1024" fill="none" xmlns="http://www.w3.org/2000/svg">
<g clip-path="url(#clip0_409_1689)">
<path d="M171.837 612.858C75.7982 606.022 0.00513454 525.902 0.00386135 428.042L0.00386569 378.366C0.0053414 253.821 96.7751 152.054 218.933 143.907L218.933 85.1529C218.933 71.1898 233.479 57.9994 247.431 57.9994C261.382 57.9994 277.899 71.1899 277.899 85.1529L277.899 143.655L311.533 144.072L311.533 85.1529C311.533 71.1899 328.05 57.9994 342.002 57.9994C355.953 57.9994 370.499 71.1899 370.499 85.1529L370.499 144.495L570 146.146L171.837 612.858Z" fill="white"/>
<path d="M398.163 411.822C494.202 418.659 569.995 498.778 569.996 596.639V646.314C569.995 770.86 473.225 872.626 351.067 880.773V939.528C351.067 953.491 336.521 966.681 322.569 966.681C308.618 966.681 292.101 953.491 292.101 939.528V881.026L258.467 880.609V939.528C258.467 953.491 241.95 966.681 227.998 966.681C214.047 966.681 199.501 953.491 199.501 939.528V880.186L0 878.535L398.163 411.822Z" fill="white"/>
</g>
<path d="M2969.03 773.299H2644.46V250.702H2969.03V335.061H2703.8L2735.97 305.749V469.463H2944.73V550.248H2735.97V718.251L2703.8 688.94H2969.03V773.299Z" fill="white"/>
<path d="M2257.04 773.299H2165.53V250.702H2364.99C2424.09 250.702 2470.08 265 2502.97 293.596C2536.33 322.192 2553.01 362.227 2553.01 413.701C2553.01 448.493 2544.91 478.28 2528.7 503.064C2512.98 527.371 2489.62 545.958 2458.64 558.827L2558.02 773.299H2457.93L2369.28 578.129H2257.04V773.299ZM2257.04 332.201V497.345H2364.99C2394.06 497.345 2416.7 489.957 2432.91 475.183C2449.11 460.408 2457.21 439.914 2457.21 413.701C2457.21 387.487 2449.11 367.47 2432.91 353.648C2416.7 339.35 2394.06 332.201 2364.99 332.201H2257.04Z" fill="white"/>
<path d="M1723.24 773.299H1628.88L1817.61 250.702H1911.26L2100 773.299H2003.49L1961.31 652.48H1766.14L1723.24 773.299ZM1852.64 406.551L1792.59 575.27H1934.86L1874.8 406.551C1872.9 399.402 1870.75 392.253 1868.37 385.104C1865.99 377.955 1864.56 371.759 1864.08 366.517C1863.13 371.283 1861.46 377.479 1859.08 385.104C1857.17 392.253 1855.02 399.402 1852.64 406.551Z" fill="white"/>
<path d="M1341.76 250.702V773.299H1250.25V250.702H1341.76ZM1456.86 593.142H1319.6V511.643H1437.56C1469.02 511.643 1492.85 503.779 1509.05 488.051C1525.73 471.846 1534.07 449.446 1534.07 420.85C1534.07 392.253 1525.73 370.329 1509.05 355.078C1492.85 339.827 1469.49 332.201 1438.99 332.201H1311.02V250.702H1456.86C1492.13 250.702 1522.63 257.851 1548.37 272.149C1574.11 286.447 1594.12 306.464 1608.42 332.201C1622.72 357.461 1629.87 387.249 1629.87 421.564C1629.87 454.927 1622.72 484.715 1608.42 510.928C1594.12 536.665 1574.11 556.92 1548.37 571.695C1522.63 585.993 1492.13 593.142 1456.86 593.142Z" fill="white"/>
<path d="M797.149 396.543C797.149 366.04 805.013 339.112 820.741 315.758C836.469 292.404 858.154 274.293 885.798 261.425C913.917 248.08 946.326 241.408 983.025 241.408C1018.29 241.408 1048.8 247.604 1074.53 259.995C1100.75 272.387 1121 290.021 1135.3 312.898C1150.07 335.775 1157.94 362.942 1158.89 394.398H1067.38C1066.43 371.997 1058.33 354.601 1043.08 342.21C1027.83 329.341 1007.33 322.907 981.595 322.907C953.475 322.907 930.837 329.341 913.679 342.21C896.998 354.601 888.657 371.759 888.657 393.683C888.657 412.271 893.662 427.045 903.67 438.007C914.156 448.493 930.36 456.357 952.284 461.599L1034.5 480.187C1079.3 489.719 1112.66 506.162 1134.59 529.515C1156.51 552.392 1167.47 583.372 1167.47 622.453C1167.47 654.386 1159.61 682.505 1143.88 706.812C1128.15 731.119 1105.75 749.945 1076.68 763.29C1048.08 776.158 1014.48 782.592 975.876 782.592C939.177 782.592 907.006 776.397 879.363 764.005C851.72 751.137 830.035 733.264 814.307 710.387C799.055 687.51 790.953 660.582 790 629.602H881.508C881.985 651.526 890.564 668.922 907.245 681.791C924.403 694.182 947.518 700.378 976.591 700.378C1007.09 700.378 1031.16 694.182 1048.8 681.791C1066.91 668.922 1075.96 652.003 1075.96 631.032C1075.96 612.921 1071.2 598.623 1061.66 588.138C1052.13 577.176 1036.64 569.55 1015.2 565.261L932.267 546.673C887.942 537.141 854.342 519.983 831.465 495.2C808.588 469.94 797.149 437.054 797.149 396.543Z" fill="white"/>
<path d="M3316.6 780.224H3227.02V636H3316.6V659.281H3243.4L3252.28 651.192V696.373H3309.89V718.668H3252.28V765.032L3243.4 756.943H3316.6V780.224Z" fill="white"/>
<path d="M3138.28 782.593C3124.21 782.593 3111.98 779.567 3101.59 773.517C3091.33 767.335 3083.3 758.72 3077.52 747.671C3071.86 736.491 3069.03 723.338 3069.03 708.212C3069.03 693.217 3071.92 680.13 3077.71 668.95C3083.63 657.77 3091.92 649.089 3102.57 642.907C3113.23 636.725 3125.52 633.634 3139.47 633.634C3150.91 633.634 3161.17 635.738 3170.24 639.947C3179.32 644.156 3186.82 650.075 3192.74 657.704C3198.66 665.201 3202.4 674.145 3203.98 684.536H3177.35C3174.85 676.118 3170.18 669.608 3163.34 665.004C3156.63 660.269 3148.41 657.901 3138.68 657.901C3130 657.901 3122.37 659.94 3115.79 664.017C3109.35 668.095 3104.35 673.882 3100.8 681.38C3097.24 688.877 3095.47 697.821 3095.47 708.212C3095.47 718.208 3097.24 727.021 3100.8 734.65C3104.35 742.147 3109.35 748 3115.79 752.209C3122.37 756.287 3130 758.325 3138.68 758.325C3148.54 758.325 3156.96 755.958 3163.93 751.223C3171.03 746.487 3175.77 740.108 3178.14 732.085H3204.38C3202.54 742.081 3198.52 750.894 3192.34 758.523C3186.29 766.151 3178.6 772.07 3169.26 776.279C3160.05 780.488 3149.73 782.593 3138.28 782.593Z" fill="white"/>
<path d="M3385.98 582.928H3361.12V438.705H3386.18L3461.15 552.15H3453.85V438.705H3478.71V582.928H3453.85L3378.68 469.68H3385.98V582.928Z" fill="white"/>
<path d="M3239.06 582.928H3213.02L3265.1 438.705H3290.95L3343.03 582.928H3316.4L3304.76 549.585H3250.9L3239.06 582.928ZM3274.77 481.715L3258.2 528.277H3297.46L3280.89 481.715C3280.36 479.742 3279.77 477.769 3279.11 475.796C3278.45 473.823 3278.06 472.113 3277.93 470.667C3277.66 471.982 3277.2 473.692 3276.55 475.796C3276.02 477.769 3275.43 479.742 3274.77 481.715Z" fill="white"/>
<path d="M3102.17 582.928H3077.31V438.705H3102.37L3177.34 552.15H3170.04V438.705H3194.9V582.928H3170.04L3094.87 469.68H3102.17V582.928Z" fill="white"/>
<path d="M3214.51 241.408V385.632H3189.26V241.408H3214.51Z" fill="white"/>
<path d="M3102.57 241.408V385.632H3077.31V241.408H3102.57ZM3166.49 264.689H3079.29V241.408H3166.49V264.689ZM3156.23 326.64H3078.89V303.951H3156.23V326.64Z" fill="white"/>
<defs>
<clipPath id="clip0_409_1689">
<rect width="570" height="1024" rx="239.999" fill="white"/>
</clipPath>
</defs>
</svg>
