<svg width="224" height="48" viewBox="0 0 224 48" fill="none" xmlns="http://www.w3.org/2000/svg">
<g clip-path="url(#clip0_2_2)">
<path d="M7.91449 28.5654C3.55217 28.2549 0.109469 24.6157 0.109414 20.1706L0.109414 17.9142C0.109479 12.2571 4.505 7.6346 10.0537 7.26455L10.0537 4.59578C10.0537 3.96155 10.7144 3.3624 11.3481 3.3624C11.9818 3.3624 12.7321 3.96155 12.7321 4.59578L12.7321 7.25309L14.2598 7.27203L14.2598 4.59578C14.2598 3.96155 15.0101 3.3624 15.6438 3.3624C16.2775 3.3624 16.9382 3.96155 16.9382 4.59578L16.9382 7.29122L26 7.36624L7.91449 28.5654Z" fill="#4FCF7D"/>
<path d="M18.1949 19.4343C22.5572 19.7449 25.9999 23.3841 26 27.8291V30.0855C25.9999 35.7427 21.6044 40.3652 16.0557 40.7352L16.0557 43.404C16.0557 44.0382 15.3949 44.6374 14.7612 44.6374C14.1275 44.6374 13.3773 44.0382 13.3773 43.404L13.3773 40.7467L11.8496 40.7277L11.8496 43.404C11.8496 44.0382 11.0993 44.6374 10.4656 44.6374C9.83191 44.6374 9.17118 44.0382 9.17118 43.404L9.17118 40.7085L0.109375 40.6335L18.1949 19.4343Z" fill="#4FCF7D"/>
</g>
<path d="M39.248 17.136C39.248 15.7707 39.6 14.5653 40.304 13.52C41.008 12.4747 41.9787 11.664 43.216 11.088C44.4747 10.4907 45.9253 10.192 47.568 10.192C49.1467 10.192 50.512 10.4693 51.664 11.024C52.8373 11.5787 53.744 12.368 54.384 13.392C55.0453 14.416 55.3973 15.632 55.44 17.04H51.344C51.3013 16.0373 50.9387 15.2587 50.256 14.704C49.5733 14.128 48.656 13.84 47.504 13.84C46.2453 13.84 45.232 14.128 44.464 14.704C43.7173 15.2587 43.344 16.0267 43.344 17.008C43.344 17.84 43.568 18.5013 44.016 18.992C44.4853 19.4613 45.2107 19.8133 46.192 20.048L49.872 20.88C51.8773 21.3067 53.3707 22.0427 54.352 23.088C55.3333 24.112 55.824 25.4987 55.824 27.248C55.824 28.6773 55.472 29.936 54.768 31.024C54.064 32.112 53.0613 32.9547 51.76 33.552C50.48 34.128 48.976 34.416 47.248 34.416C45.6053 34.416 44.1653 34.1387 42.928 33.584C41.6907 33.008 40.72 32.208 40.016 31.184C39.3333 30.16 38.9707 28.9547 38.928 27.568H43.024C43.0453 28.5493 43.4293 29.328 44.176 29.904C44.944 30.4587 45.9787 30.736 47.28 30.736C48.6453 30.736 49.7227 30.4587 50.512 29.904C51.3227 29.328 51.728 28.5707 51.728 27.632C51.728 26.8213 51.5147 26.1813 51.088 25.712C50.6613 25.2213 49.968 24.88 49.008 24.688L45.296 23.856C43.312 23.4293 41.808 22.6613 40.784 21.552C39.76 20.4213 39.248 18.9493 39.248 17.136ZM58.9535 41.328V18.192H62.5695L62.8255 20.592C63.2948 19.6747 64.0202 18.9707 65.0015 18.48C65.9828 17.968 67.0602 17.712 68.2335 17.712C69.7482 17.712 71.0495 18.0533 72.1375 18.736C73.2468 19.4187 74.1108 20.368 74.7295 21.584C75.3482 22.8 75.6575 24.24 75.6575 25.904C75.6575 27.5467 75.3695 29.008 74.7935 30.288C74.2175 31.568 73.3748 32.5813 72.2655 33.328C71.1775 34.0533 69.8442 34.416 68.2655 34.416C67.0922 34.416 66.0148 34.192 65.0335 33.744C64.0735 33.296 63.3482 32.6773 62.8575 31.888V41.328H58.9535ZM62.8895 26.096C62.8895 27.0347 63.0708 27.8667 63.4335 28.592C63.7962 29.3173 64.3082 29.8933 64.9695 30.32C65.6522 30.7253 66.4415 30.928 67.3375 30.928C68.2548 30.928 69.0442 30.7253 69.7055 30.32C70.3668 29.8933 70.8682 29.3173 71.2095 28.592C71.5508 27.8667 71.7215 27.0347 71.7215 26.096C71.7215 25.1573 71.5508 24.3253 71.2095 23.6C70.8682 22.8747 70.3668 22.3093 69.7055 21.904C69.0442 21.4773 68.2548 21.264 67.3375 21.264C66.4415 21.264 65.6522 21.4667 64.9695 21.872C64.3082 22.2773 63.7962 22.8427 63.4335 23.568C63.0708 24.2933 62.8895 25.136 62.8895 26.096ZM83.47 34.416C81.806 34.416 80.4833 33.968 79.502 33.072C78.542 32.1547 78.062 30.96 78.062 29.488C78.062 28.0373 78.5633 26.8853 79.566 26.032C80.59 25.1573 82.0407 24.6453 83.918 24.496L88.654 24.112V23.76C88.654 23.0347 88.5153 22.4587 88.238 22.032C87.982 21.584 87.6087 21.264 87.118 21.072C86.6273 20.8587 86.0513 20.752 85.39 20.752C84.238 20.752 83.3527 20.9867 82.734 21.456C82.1153 21.904 81.806 22.544 81.806 23.376H78.478C78.478 22.224 78.766 21.232 79.342 20.4C79.9393 19.5467 80.7713 18.8853 81.838 18.416C82.926 17.9467 84.174 17.712 85.582 17.712C87.0113 17.712 88.238 17.968 89.262 18.48C90.286 18.9707 91.0753 19.7173 91.63 20.72C92.1847 21.7013 92.462 22.928 92.462 24.4V34H89.038L88.75 31.664C88.4087 32.4747 87.7473 33.136 86.766 33.648C85.806 34.16 84.7073 34.416 83.47 34.416ZM84.718 31.472C85.934 31.472 86.894 31.1307 87.598 30.448C88.3233 29.7653 88.686 28.816 88.686 27.6V26.768L85.39 27.024C84.174 27.1307 83.31 27.3867 82.798 27.792C82.286 28.176 82.03 28.688 82.03 29.328C82.03 30.032 82.2647 30.5653 82.734 30.928C83.2033 31.2907 83.8647 31.472 84.718 31.472ZM96.2973 34V18.192H100.201V34H96.2973ZM98.2173 15.024C97.5559 15.024 96.9906 14.8 96.5213 14.352C96.0733 13.8827 95.8493 13.3173 95.8493 12.656C95.8493 11.9947 96.0733 11.44 96.5213 10.992C96.9906 10.544 97.5559 10.32 98.2173 10.32C98.8786 10.32 99.4333 10.544 99.8813 10.992C100.351 11.44 100.585 11.9947 100.585 12.656C100.585 13.3173 100.351 13.8827 99.8813 14.352C99.4333 14.8 98.8786 15.024 98.2173 15.024ZM114.155 18.128V21.744H112.715C111.285 21.744 110.165 22.128 109.355 22.896C108.544 23.6427 108.139 24.784 108.139 26.32V34H104.235V18.224H107.915L108.235 21.488H107.851C108.064 20.4427 108.565 19.5893 109.355 18.928C110.144 18.2667 111.168 17.936 112.427 17.936C112.704 17.936 112.981 17.9467 113.259 17.968C113.536 17.9893 113.835 18.0427 114.155 18.128ZM129.966 34H125.998V10.608H129.966L137.518 29.232L145.07 10.608H149.102V34H145.134V26.8C145.134 25.6267 145.134 24.6453 145.134 23.856C145.134 23.0453 145.145 22.3627 145.166 21.808C145.188 21.2533 145.209 20.7627 145.23 20.336C145.252 19.9093 145.294 19.4827 145.358 19.056L139.406 34H135.63L129.71 19.088C129.817 19.792 129.881 20.688 129.902 21.776C129.945 22.864 129.966 24.144 129.966 25.616V34ZM152.776 26.064C152.776 24.4213 153.138 22.9813 153.864 21.744C154.589 20.4853 155.592 19.504 156.872 18.8C158.152 18.096 159.602 17.744 161.224 17.744C162.866 17.744 164.317 18.096 165.576 18.8C166.856 19.504 167.858 20.4853 168.583 21.744C169.309 22.9813 169.672 24.4213 169.672 26.064C169.672 27.7067 169.309 29.1573 168.583 30.416C167.858 31.6533 166.856 32.624 165.576 33.328C164.317 34.032 162.866 34.384 161.224 34.384C159.602 34.384 158.152 34.032 156.872 33.328C155.592 32.624 154.589 31.6533 153.864 30.416C153.138 29.1573 152.776 27.7067 152.776 26.064ZM156.68 26.064C156.68 27.024 156.872 27.8667 157.256 28.592C157.661 29.3173 158.194 29.8827 158.856 30.288C159.538 30.6933 160.328 30.896 161.224 30.896C162.12 30.896 162.909 30.6933 163.592 30.288C164.274 29.8827 164.808 29.3173 165.192 28.592C165.576 27.8667 165.768 27.024 165.768 26.064C165.768 25.0827 165.576 24.24 165.192 23.536C164.808 22.8107 164.274 22.2453 163.592 21.84C162.909 21.4347 162.12 21.232 161.224 21.232C160.328 21.232 159.538 21.4347 158.856 21.84C158.194 22.2453 157.661 22.8107 157.256 23.536C156.872 24.24 156.68 25.0827 156.68 26.064ZM176.67 34H172.766V18.192H176.382L176.702 20.24C177.193 19.4507 177.886 18.832 178.782 18.384C179.699 17.936 180.691 17.712 181.758 17.712C183.742 17.712 185.235 18.2987 186.238 19.472C187.262 20.6453 187.774 22.2453 187.774 24.272V34H183.87V25.2C183.87 23.8773 183.571 22.896 182.974 22.256C182.377 21.5947 181.566 21.264 180.542 21.264C179.326 21.264 178.377 21.648 177.694 22.416C177.011 23.184 176.67 24.208 176.67 25.488V34ZM198.682 34.416C197.124 34.416 195.738 34.064 194.522 33.36C193.327 32.6347 192.388 31.6533 191.706 30.416C191.023 29.1573 190.682 27.7173 190.682 26.096C190.682 24.4533 191.012 23.0027 191.674 21.744C192.335 20.4853 193.263 19.504 194.458 18.8C195.652 18.0747 197.018 17.712 198.554 17.712C200.154 17.712 201.53 18.0533 202.682 18.736C203.834 19.3973 204.719 20.3253 205.338 21.52C205.978 22.7147 206.298 24.144 206.298 25.808V26.992L192.73 27.024L192.794 24.528H202.426C202.426 23.44 202.074 22.5653 201.37 21.904C200.687 21.2427 199.759 20.912 198.586 20.912C197.668 20.912 196.89 21.104 196.25 21.488C195.631 21.872 195.162 22.448 194.842 23.216C194.522 23.984 194.362 24.9227 194.362 26.032C194.362 27.7387 194.724 29.0293 195.45 29.904C196.196 30.7787 197.295 31.216 198.746 31.216C199.812 31.216 200.687 31.0133 201.37 30.608C202.074 30.2027 202.532 29.6267 202.746 28.88H206.362C206.02 30.608 205.167 31.9627 203.802 32.944C202.458 33.9253 200.751 34.416 198.682 34.416ZM211.227 18.192L216.379 32.784L214.267 36.784L207.099 18.192H211.227ZM207.515 41.328V38.096H209.851C210.363 38.096 210.811 38.032 211.195 37.904C211.579 37.7973 211.92 37.584 212.219 37.264C212.539 36.944 212.806 36.4747 213.019 35.856L219.579 18.192H223.611L215.867 37.52C215.291 38.9707 214.566 40.0267 213.691 40.688C212.816 41.3493 211.728 41.68 210.427 41.68C209.872 41.68 209.35 41.648 208.859 41.584C208.39 41.5413 207.942 41.456 207.515 41.328Z" fill="#3A3939"/>
<defs>
<clipPath id="clip0_2_2">
<rect width="26" height="48" fill="white"/>
</clipPath>
</defs>
</svg>
