<svg width="3495" height="1040" viewBox="0 0 3495 1040" fill="none" xmlns="http://www.w3.org/2000/svg">
<g clip-path="url(#clip0_409_1658)">
<path d="M179.837 620.858C83.7982 614.021 8.00511 533.902 8.00386 436.042L8.00387 386.366C8.00531 261.821 104.775 160.054 226.933 151.907L226.933 93.1524C226.933 79.1894 241.479 65.9989 255.431 65.9989C269.382 65.9989 285.899 79.1894 285.899 93.1524L285.899 151.655L319.533 152.072L319.533 93.1524C319.533 79.1894 336.05 65.9989 350.002 65.9989C363.953 65.9989 378.499 79.1894 378.499 93.1524L378.499 152.494L578 154.146L179.837 620.858Z" fill="#4FCF7D"/>
<path d="M406.163 419.822C502.202 426.658 577.995 506.778 577.996 604.638V654.314C577.995 778.859 481.225 880.626 359.067 888.773V947.527C359.067 961.49 344.521 974.681 330.569 974.681C316.618 974.681 300.101 961.49 300.101 947.527V889.025L266.467 888.608V947.527C266.467 961.49 249.95 974.681 235.998 974.681C222.047 974.681 207.501 961.49 207.501 947.527V888.186L8 886.534L406.163 419.822Z" fill="#4FCF7D"/>
</g>
<path d="M2977.03 781.299H2652.46V258.702H2977.03V343.061H2711.8L2743.97 313.749V477.463H2952.73V558.248H2743.97V726.251L2711.8 696.94H2977.03V781.299Z" fill="white"/>
<path d="M2265.04 781.299H2173.53V258.702H2372.99C2432.09 258.702 2478.08 273 2510.97 301.596C2544.33 330.192 2561.01 370.227 2561.01 421.701C2561.01 456.493 2552.91 486.28 2536.7 511.064C2520.98 535.371 2497.62 553.958 2466.64 566.827L2566.02 781.299H2465.93L2377.28 586.129H2265.04V781.299ZM2265.04 340.201V505.345H2372.99C2402.06 505.345 2424.7 497.957 2440.91 483.183C2457.11 468.408 2465.21 447.914 2465.21 421.701C2465.21 395.487 2457.11 375.47 2440.91 361.648C2424.7 347.35 2402.06 340.201 2372.99 340.201H2265.04Z" fill="white"/>
<path d="M1731.24 781.299H1636.88L1825.61 258.702H1919.26L2108 781.299H2011.49L1969.31 660.48H1774.14L1731.24 781.299ZM1860.64 414.551L1800.59 583.27H1942.86L1882.8 414.551C1880.9 407.402 1878.75 400.253 1876.37 393.104C1873.99 385.955 1872.56 379.759 1872.08 374.517C1871.13 379.283 1869.46 385.479 1867.08 393.104C1865.17 400.253 1863.02 407.402 1860.64 414.551Z" fill="white"/>
<path d="M1349.76 258.702V781.299H1258.25V258.702H1349.76ZM1464.86 601.142H1327.6V519.643H1445.56C1477.02 519.643 1500.85 511.779 1517.05 496.051C1533.73 479.846 1542.07 457.446 1542.07 428.85C1542.07 400.253 1533.73 378.329 1517.05 363.078C1500.85 347.827 1477.49 340.201 1446.99 340.201H1319.02V258.702H1464.86C1500.13 258.702 1530.63 265.851 1556.37 280.149C1582.11 294.447 1602.12 314.464 1616.42 340.201C1630.72 365.461 1637.87 395.249 1637.87 429.564C1637.87 462.927 1630.72 492.715 1616.42 518.928C1602.12 544.665 1582.11 564.92 1556.37 579.695C1530.63 593.993 1500.13 601.142 1464.86 601.142Z" fill="white"/>
<path d="M805.149 404.543C805.149 374.04 813.013 347.112 828.741 323.758C844.469 300.404 866.154 282.293 893.798 269.425C921.917 256.08 954.326 249.408 991.025 249.408C1026.29 249.408 1056.8 255.604 1082.53 267.995C1108.75 280.387 1129 298.021 1143.3 320.898C1158.07 343.775 1165.94 370.942 1166.89 402.398H1075.38C1074.43 379.997 1066.33 362.601 1051.08 350.21C1035.83 337.341 1015.33 330.907 989.595 330.907C961.475 330.907 938.837 337.341 921.679 350.21C904.998 362.601 896.657 379.759 896.657 401.683C896.657 420.271 901.662 435.045 911.67 446.007C922.156 456.493 938.36 464.357 960.284 469.599L1042.5 488.187C1087.3 497.719 1120.66 514.162 1142.59 537.515C1164.51 560.392 1175.47 591.372 1175.47 630.453C1175.47 662.386 1167.61 690.505 1151.88 714.812C1136.15 739.119 1113.75 757.945 1084.68 771.29C1056.08 784.158 1022.48 790.592 983.876 790.592C947.177 790.592 915.006 784.397 887.363 772.005C859.72 759.137 838.035 741.264 822.307 718.387C807.055 695.51 798.953 668.582 798 637.602H889.508C889.985 659.526 898.564 676.922 915.245 689.791C932.403 702.182 955.518 708.378 984.591 708.378C1015.09 708.378 1039.16 702.182 1056.8 689.791C1074.91 676.922 1083.96 660.003 1083.96 639.032C1083.96 620.921 1079.2 606.623 1069.66 596.138C1060.13 585.176 1044.64 577.55 1023.2 573.261L940.267 554.673C895.942 545.141 862.342 527.983 839.465 503.2C816.588 477.94 805.149 445.054 805.149 404.543Z" fill="white"/>
<path d="M3324.6 788.224H3235.02V644H3324.6V667.281H3251.4L3260.28 659.192V704.373H3317.89V726.668H3260.28V773.032L3251.4 764.943H3324.6V788.224Z" fill="white"/>
<path d="M3146.28 790.593C3132.21 790.593 3119.98 787.567 3109.59 781.517C3099.33 775.335 3091.3 766.72 3085.52 755.671C3079.86 744.491 3077.03 731.338 3077.03 716.212C3077.03 701.217 3079.92 688.13 3085.71 676.95C3091.63 665.77 3099.92 657.089 3110.57 650.907C3121.23 644.725 3133.52 641.634 3147.47 641.634C3158.91 641.634 3169.17 643.738 3178.24 647.947C3187.32 652.156 3194.82 658.075 3200.74 665.704C3206.66 673.201 3210.4 682.145 3211.98 692.536H3185.35C3182.85 684.118 3178.18 677.608 3171.34 673.004C3164.63 668.269 3156.41 665.901 3146.68 665.901C3138 665.901 3130.37 667.94 3123.79 672.017C3117.35 676.095 3112.35 681.882 3108.8 689.38C3105.24 696.877 3103.47 705.821 3103.47 716.212C3103.47 726.208 3105.24 735.021 3108.8 742.65C3112.35 750.147 3117.35 756 3123.79 760.209C3130.37 764.287 3138 766.325 3146.68 766.325C3156.54 766.325 3164.96 763.958 3171.93 759.223C3179.03 754.487 3183.77 748.108 3186.14 740.085H3212.38C3210.54 750.081 3206.52 758.894 3200.34 766.523C3194.29 774.151 3186.6 780.07 3177.26 784.279C3168.05 788.488 3157.73 790.593 3146.28 790.593Z" fill="white"/>
<path d="M3393.98 590.928H3369.12V446.705H3394.18L3469.15 560.15H3461.85V446.705H3486.71V590.928H3461.85L3386.68 477.68H3393.98V590.928Z" fill="white"/>
<path d="M3247.06 590.928H3221.02L3273.1 446.705H3298.95L3351.03 590.928H3324.4L3312.76 557.585H3258.9L3247.06 590.928ZM3282.77 489.715L3266.2 536.277H3305.46L3288.89 489.715C3288.36 487.742 3287.77 485.769 3287.11 483.796C3286.45 481.823 3286.06 480.113 3285.93 478.667C3285.66 479.982 3285.2 481.692 3284.55 483.796C3284.02 485.769 3283.43 487.742 3282.77 489.715Z" fill="white"/>
<path d="M3110.17 590.928H3085.31V446.705H3110.37L3185.34 560.15H3178.04V446.705H3202.9V590.928H3178.04L3102.87 477.68H3110.17V590.928Z" fill="white"/>
<path d="M3222.51 249.408V393.632H3197.26V249.408H3222.51Z" fill="white"/>
<path d="M3110.57 249.408V393.632H3085.31V249.408H3110.57ZM3174.49 272.689H3087.29V249.408H3174.49V272.689ZM3164.23 334.64H3086.89V311.951H3164.23V334.64Z" fill="white"/>
<defs>
<clipPath id="clip0_409_1658">
<rect x="8" y="8" width="570" height="1024" rx="239.999" fill="white"/>
</clipPath>
</defs>
</svg>
