<svg width="1040" height="1040" viewBox="0 0 1040 1040" fill="none" xmlns="http://www.w3.org/2000/svg">
<path d="M406.837 620.859C310.798 614.022 235.005 533.903 235.004 436.043L235.004 386.367C235.005 261.822 331.775 160.055 453.933 151.908L453.933 93.1534C453.933 79.1904 468.479 65.9998 482.431 65.9998C496.382 65.9998 512.899 79.1904 512.899 93.1534L512.899 151.656L546.533 152.072L546.533 93.1534C546.533 79.1904 563.05 65.9998 577.002 65.9998C590.953 65.9998 605.499 79.1904 605.499 93.1534L605.499 152.495L805 154.146L406.837 620.859Z" fill="#4FCF7D"/>
<path d="M633.163 419.823C729.202 426.659 804.995 506.779 804.996 604.639V654.315C804.995 778.86 708.225 880.627 586.067 888.774V947.528C586.067 961.491 571.521 974.682 557.569 974.682C543.618 974.682 527.101 961.491 527.101 947.528V889.026L493.467 888.609V947.528C493.467 961.491 476.95 974.682 462.998 974.682C449.047 974.682 434.501 961.491 434.501 947.528V888.187L235 886.535L633.163 419.823Z" fill="#4FCF7D"/>
</svg>
