<svg width="1024" height="1024" viewBox="0 0 1024 1024" fill="none" xmlns="http://www.w3.org/2000/svg">
<path d="M398.837 612.858C302.798 606.022 227.005 525.902 227.004 428.042L227.004 378.366C227.005 253.821 323.775 152.054 445.933 143.907L445.933 85.1529C445.933 71.1899 460.479 57.9994 474.431 57.9993C488.382 57.9994 504.899 71.1899 504.899 85.1529L504.899 143.655L538.533 144.072L538.533 85.1529C538.533 71.1899 555.05 57.9994 569.002 57.9994C582.953 57.9994 597.499 71.1899 597.499 85.1529L597.499 144.495L797 146.146L398.837 612.858Z" fill="white"/>
<path d="M625.163 411.822C721.202 418.659 796.995 498.778 796.996 596.639V646.314C796.995 770.86 700.225 872.626 578.067 880.773V939.528C578.067 953.491 563.521 966.681 549.569 966.681C535.618 966.681 519.101 953.491 519.101 939.528V881.026L485.467 880.609V939.528C485.467 953.491 468.95 966.681 454.998 966.681C441.047 966.681 426.501 953.491 426.501 939.528V880.186L227 878.535L625.163 411.822Z" fill="white"/>
</svg>
