<svg width="211" height="48" viewBox="0 0 211 48" fill="none" xmlns="http://www.w3.org/2000/svg">
<g clip-path="url(#clip0_1_185)">
<path d="M7.91449 28.5654C3.55217 28.2549 0.10947 24.6157 0.109413 20.1706L0.109413 17.9142C0.109479 12.2571 4.505 7.6346 10.0537 7.26455L10.0537 4.59578C10.0537 3.96155 10.7144 3.3624 11.3481 3.3624C11.9818 3.3624 12.7321 3.96155 12.7321 4.59578L12.7321 7.25309L14.2598 7.27203L14.2598 4.59578C14.2598 3.96155 15.0101 3.3624 15.6438 3.3624C16.2775 3.3624 16.9382 3.96155 16.9382 4.59578L16.9382 7.29122L26 7.36624L7.91449 28.5654Z" fill="white"/>
<path d="M18.1949 19.4343C22.5572 19.7449 25.9999 23.3841 26 27.8291V30.0855C25.9999 35.7427 21.6044 40.3652 16.0557 40.7352L16.0557 43.404C16.0557 44.0382 15.3949 44.6374 14.7612 44.6374C14.1275 44.6374 13.3773 44.0382 13.3773 43.404L13.3773 40.7467L11.8496 40.7277L11.8496 43.404C11.8496 44.0382 11.0993 44.6374 10.4656 44.6374C9.83191 44.6374 9.17118 44.0382 9.17118 43.404L9.17118 40.7085L0.109375 40.6335L18.1949 19.4343Z" fill="white"/>
</g>
<path d="M39.152 17.2C39.152 15.7707 39.5253 14.512 40.272 13.424C41.0187 12.3147 42.0427 11.4507 43.344 10.832C44.6667 10.192 46.1707 9.872 47.856 9.872C49.5627 9.872 51.0347 10.1707 52.272 10.768C53.5093 11.3653 54.4587 12.208 55.12 13.296C55.8027 14.384 56.144 15.6747 56.144 17.168H50.992C50.992 16.336 50.704 15.6853 50.128 15.216C49.552 14.7253 48.7733 14.48 47.792 14.48C46.7467 14.48 45.904 14.704 45.264 15.152C44.6453 15.6 44.336 16.2187 44.336 17.008C44.336 17.7333 44.528 18.288 44.912 18.672C45.296 19.056 45.904 19.3333 46.736 19.504L50.288 20.24C52.4 20.6667 53.968 21.4133 54.992 22.48C56.016 23.5253 56.528 24.9867 56.528 26.864C56.528 28.3787 56.1547 29.712 55.408 30.864C54.6613 31.9947 53.6053 32.8693 52.24 33.488C50.896 34.1067 49.3173 34.416 47.504 34.416C45.7547 34.416 44.2187 34.1173 42.896 33.52C41.5947 32.9227 40.5813 32.08 39.856 30.992C39.152 29.8827 38.8 28.592 38.8 27.12H43.952C43.952 27.9733 44.2613 28.6347 44.88 29.104C45.4987 29.5733 46.384 29.808 47.536 29.808C48.7093 29.808 49.6373 29.5947 50.32 29.168C51.0027 28.72 51.344 28.1227 51.344 27.376C51.344 26.7147 51.1733 26.2027 50.832 25.84C50.512 25.4773 49.9573 25.2213 49.168 25.072L45.552 24.336C43.44 23.9093 41.84 23.0987 40.752 21.904C39.6853 20.7093 39.152 19.1413 39.152 17.2ZM59.356 41.68V18H63.996L64.252 19.952C64.7 19.2053 65.3933 18.608 66.332 18.16C67.2707 17.712 68.3053 17.488 69.436 17.488C70.9293 17.488 72.2413 17.8187 73.372 18.48C74.5027 19.1413 75.388 20.0907 76.028 21.328C76.668 22.544 76.988 24.016 76.988 25.744C76.988 27.4293 76.6893 28.9333 76.092 30.256C75.516 31.5573 74.6627 32.5813 73.532 33.328C72.4227 34.0747 71.068 34.448 69.468 34.448C68.3587 34.448 67.3347 34.256 66.396 33.872C65.4573 33.488 64.7533 32.9973 64.284 32.4V41.68H59.356ZM64.316 26C64.316 26.7893 64.476 27.4933 64.796 28.112C65.1373 28.7093 65.596 29.1787 66.172 29.52C66.7693 29.84 67.452 30 68.22 30C69.0093 30 69.6813 29.8293 70.236 29.488C70.812 29.1467 71.2493 28.6773 71.548 28.08C71.868 27.4827 72.028 26.7893 72.028 26C72.028 25.2107 71.868 24.5173 71.548 23.92C71.2493 23.3227 70.812 22.8533 70.236 22.512C69.6813 22.1707 69.0093 22 68.22 22C67.452 22 66.7693 22.1707 66.172 22.512C65.596 22.832 65.1373 23.2907 64.796 23.888C64.476 24.4853 64.316 25.1893 64.316 26ZM84.6568 34.416C82.9714 34.416 81.6274 33.9573 80.6248 33.04C79.6434 32.1013 79.1528 30.8533 79.1528 29.296C79.1528 27.824 79.6541 26.6507 80.6568 25.776C81.6808 24.9013 83.1528 24.3893 85.0728 24.24L89.5528 23.888V23.632C89.5528 23.0987 89.4461 22.6613 89.2328 22.32C89.0194 21.9573 88.7101 21.6907 88.3048 21.52C87.9208 21.328 87.4301 21.232 86.8328 21.232C85.7874 21.232 84.9874 21.424 84.4328 21.808C83.8994 22.192 83.6328 22.7467 83.6328 23.472H79.5368C79.5368 22.256 79.8461 21.2 80.4648 20.304C81.0834 19.408 81.9581 18.7147 83.0888 18.224C84.2408 17.7333 85.5741 17.488 87.0888 17.488C88.6461 17.488 89.9581 17.7653 91.0248 18.32C92.1128 18.8747 92.9341 19.6853 93.4888 20.752C94.0648 21.8187 94.3528 23.12 94.3528 24.656V34H90.0008L89.6808 31.888C89.4248 32.6133 88.8168 33.2213 87.8568 33.712C86.9181 34.1813 85.8514 34.416 84.6568 34.416ZM86.3848 30.768C87.3234 30.768 88.0914 30.544 88.6888 30.096C89.2861 29.6267 89.5848 28.9333 89.5848 28.016V27.152L87.0888 27.376C86.0221 27.4613 85.2648 27.6427 84.8168 27.92C84.3901 28.176 84.1768 28.56 84.1768 29.072C84.1768 29.648 84.3581 30.0747 84.7208 30.352C85.0834 30.6293 85.6381 30.768 86.3848 30.768ZM97.8873 34V18H102.815V34H97.8873ZM100.319 15.504C99.5299 15.504 98.8579 15.2373 98.3033 14.704C97.7699 14.1493 97.5033 13.4773 97.5033 12.688C97.5033 11.8987 97.7699 11.2373 98.3033 10.704C98.8579 10.1707 99.5299 9.904 100.319 9.904C101.087 9.904 101.738 10.1707 102.271 10.704C102.826 11.2373 103.103 11.8987 103.103 12.688C103.103 13.4773 102.826 14.1493 102.271 14.704C101.738 15.2373 101.087 15.504 100.319 15.504ZM117.52 18V22.64H115.952C114.544 22.64 113.435 22.9813 112.624 23.664C111.835 24.3467 111.44 25.4773 111.44 27.056V34H106.512V18.032H111.152L111.536 21.456H111.088C111.302 20.3893 111.782 19.5147 112.528 18.832C113.296 18.128 114.331 17.776 115.632 17.776C115.931 17.776 116.23 17.7973 116.528 17.84C116.848 17.8613 117.179 17.9147 117.52 18ZM122.572 34H121.036V11.28H122.572L131.276 32.144L139.948 11.28H141.516V34H139.98V21.552C139.98 20.6133 139.98 19.792 139.98 19.088C140.002 18.3627 140.012 17.7227 140.012 17.168C140.034 16.592 140.055 16.0907 140.076 15.664C140.098 15.216 140.119 14.8 140.14 14.416L132.044 34H130.508L122.412 14.512C122.455 14.832 122.487 15.6213 122.508 16.88C122.551 18.1173 122.572 19.6747 122.572 21.552V34ZM145.686 26.32C145.686 24.7627 146.017 23.3867 146.678 22.192C147.34 20.976 148.246 20.016 149.398 19.312C150.55 18.608 151.852 18.256 153.302 18.256C154.774 18.256 156.076 18.608 157.206 19.312C158.358 20.016 159.265 20.976 159.926 22.192C160.588 23.3867 160.918 24.7627 160.918 26.32C160.918 27.856 160.588 29.232 159.926 30.448C159.265 31.664 158.358 32.624 157.206 33.328C156.076 34.032 154.774 34.384 153.302 34.384C151.852 34.384 150.55 34.032 149.398 33.328C148.246 32.624 147.34 31.664 146.678 30.448C146.017 29.232 145.686 27.856 145.686 26.32ZM147.19 26.32C147.19 27.6213 147.446 28.784 147.958 29.808C148.492 30.8107 149.217 31.6 150.134 32.176C151.052 32.752 152.108 33.04 153.302 33.04C154.497 33.04 155.553 32.752 156.47 32.176C157.388 31.6 158.102 30.8107 158.614 29.808C159.148 28.784 159.414 27.6213 159.414 26.32C159.414 24.9973 159.148 23.8347 158.614 22.832C158.102 21.8293 157.388 21.04 156.47 20.464C155.553 19.888 154.497 19.6 153.302 19.6C152.108 19.6 151.052 19.888 150.134 20.464C149.217 21.04 148.492 21.8293 147.958 22.832C147.446 23.8347 147.19 24.9973 147.19 26.32ZM166.092 34H164.62V18.64H165.804L166.124 21.616C166.636 20.5493 167.382 19.728 168.364 19.152C169.345 18.5547 170.412 18.256 171.564 18.256C173.74 18.256 175.276 18.8427 176.172 20.016C177.089 21.1893 177.548 22.736 177.548 24.656V34H176.076V24.944C176.076 22.9173 175.66 21.52 174.828 20.752C174.017 19.984 172.918 19.6 171.532 19.6C169.782 19.6 168.438 20.1973 167.5 21.392C166.561 22.5653 166.092 24.1227 166.092 26.064V34ZM188.453 34.384C186.981 34.384 185.691 34.0533 184.581 33.392C183.472 32.7093 182.608 31.7707 181.989 30.576C181.371 29.36 181.061 27.952 181.061 26.352C181.061 24.752 181.36 23.344 181.957 22.128C182.576 20.912 183.419 19.9627 184.485 19.28C185.573 18.5973 186.832 18.256 188.261 18.256C189.605 18.256 190.779 18.5547 191.781 19.152C192.805 19.7493 193.595 20.5813 194.149 21.648C194.725 22.6933 195.013 23.92 195.013 25.328V26.352H181.893L181.957 25.136H193.509C193.509 23.472 193.029 22.1387 192.069 21.136C191.109 20.112 189.84 19.6 188.261 19.6C187.131 19.6 186.128 19.8667 185.253 20.4C184.4 20.9333 183.728 21.6907 183.237 22.672C182.768 23.632 182.533 24.752 182.533 26.032C182.533 28.2293 183.056 29.9467 184.101 31.184C185.147 32.4213 186.597 33.04 188.453 33.04C189.819 33.04 190.928 32.752 191.781 32.176C192.635 31.5787 193.211 30.7147 193.509 29.584H195.013C194.565 31.1627 193.787 32.3573 192.677 33.168C191.589 33.9787 190.181 34.384 188.453 34.384ZM197.825 18.64L203.969 34.992L202.529 35.088L196.289 18.64H197.825ZM196.737 40.496V39.312H198.177C198.603 39.312 199.041 39.28 199.489 39.216C199.937 39.152 200.363 38.9707 200.769 38.672C201.174 38.3733 201.505 37.8613 201.761 37.136L208.417 18.64H209.921L203.105 37.552C202.699 38.6613 202.145 39.4613 201.441 39.952C200.737 40.4427 199.862 40.688 198.817 40.688C198.411 40.688 198.038 40.6667 197.697 40.624C197.377 40.6027 197.057 40.56 196.737 40.496Z" fill="white"/>
<defs>
<clipPath id="clip0_1_185">
<rect width="26" height="48" fill="white"/>
</clipPath>
</defs>
</svg>
