<svg width="512" height="512" viewBox="0 0 512 512" fill="none" xmlns="http://www.w3.org/2000/svg">
<path d="M199.637 306.579C151.308 303.139 113.167 262.821 113.167 213.576L113.167 188.578C113.168 125.904 161.864 74.6933 223.336 70.5936L223.336 41.0272C223.336 34.0007 230.656 27.363 237.677 27.363C244.697 27.363 253.009 34.0007 253.009 41.0272L253.009 70.4666L269.934 70.6764L269.934 41.0272C269.934 34.0007 278.246 27.363 285.267 27.363C292.287 27.363 299.607 34.0007 299.607 41.0272L299.607 70.8891L400 71.7201L199.637 306.579Z" fill="black"/>
<path d="M313.53 205.418C361.859 208.859 399.999 249.176 400 298.422V323.419C399.999 386.093 351.303 437.304 289.83 441.404V470.97C289.83 477.997 282.51 484.634 275.49 484.634C268.469 484.634 260.157 477.997 260.157 470.97V441.531L243.232 441.321V470.97C243.232 477.997 234.92 484.634 227.9 484.634C220.879 484.634 213.559 477.997 213.559 470.97V441.108L113.167 440.277L313.53 205.418Z" fill="black"/>
</svg>
