<svg width="3729" height="1040" viewBox="0 0 3729 1040" fill="none" xmlns="http://www.w3.org/2000/svg">
<path d="M406.837 620.858C310.798 614.021 235.005 533.902 235.004 436.042L235.004 386.366C235.005 261.821 331.775 160.054 453.933 151.907L453.933 93.1524C453.933 79.1894 468.479 65.9989 482.431 65.9989C496.382 65.9989 512.899 79.1894 512.899 93.1524L512.899 151.655L546.533 152.072L546.533 93.1524C546.533 79.1894 563.05 65.9989 577.002 65.9989C590.953 65.9989 605.499 79.1894 605.499 93.1524L605.499 152.494L805 154.146L406.837 620.858Z" fill="white"/>
<path d="M633.163 419.822C729.202 426.658 804.995 506.778 804.996 604.638V654.314C804.995 778.859 708.225 880.626 586.067 888.773V947.527C586.067 961.49 571.521 974.681 557.569 974.681C543.618 974.681 527.101 961.49 527.101 947.527V889.025L493.467 888.608V947.527C493.467 961.49 476.95 974.681 462.998 974.681C449.047 974.681 434.501 961.49 434.501 947.527V888.186L235 886.534L633.163 419.822Z" fill="white"/>
<path d="M3211.03 781.299H2886.46V258.702H3211.03V343.061H2945.8L2977.97 313.749V477.463H3186.72V558.248H2977.97V726.251L2945.8 696.94H3211.03V781.299Z" fill="white"/>
<path d="M2499.04 781.299H2407.53V258.702H2606.99C2666.09 258.702 2712.08 273 2744.96 301.596C2778.33 330.192 2795.01 370.227 2795.01 421.701C2795.01 456.493 2786.9 486.28 2770.7 511.064C2754.97 535.371 2731.62 553.958 2700.64 566.827L2800.01 781.299H2699.92L2611.28 586.129H2499.04V781.299ZM2499.04 340.201V505.345H2606.99C2636.06 505.345 2658.7 497.957 2674.9 483.183C2691.11 468.408 2699.21 447.914 2699.21 421.701C2699.21 395.487 2691.11 375.47 2674.9 361.648C2658.7 347.35 2636.06 340.201 2606.99 340.201H2499.04Z" fill="white"/>
<path d="M1965.24 781.299H1870.87L2059.61 258.702H2153.26L2341.99 781.299H2245.48L2203.3 660.48H2008.13L1965.24 781.299ZM2094.64 414.551L2034.58 583.27H2176.85L2116.8 414.551C2114.89 407.402 2112.75 400.253 2110.36 393.104C2107.98 385.955 2106.55 379.759 2106.08 374.517C2105.12 379.283 2103.45 385.479 2101.07 393.104C2099.16 400.253 2097.02 407.402 2094.64 414.551Z" fill="white"/>
<path d="M1583.76 258.702V781.299H1492.25V258.702H1583.76ZM1698.86 601.142H1561.6V519.643H1679.56C1711.01 519.643 1734.84 511.779 1751.05 496.051C1767.73 479.846 1776.07 457.446 1776.07 428.85C1776.07 400.253 1767.73 378.329 1751.05 363.078C1734.84 347.827 1711.49 340.201 1680.99 340.201H1553.02V258.702H1698.86C1734.13 258.702 1764.63 265.851 1790.37 280.149C1816.1 294.447 1836.12 314.464 1850.42 340.201C1864.72 365.461 1871.87 395.249 1871.87 429.564C1871.87 462.927 1864.72 492.715 1850.42 518.928C1836.12 544.665 1816.1 564.92 1790.37 579.695C1764.63 593.993 1734.13 601.142 1698.86 601.142Z" fill="white"/>
<path d="M1039.15 404.543C1039.15 374.04 1047.01 347.112 1062.74 323.758C1078.47 300.404 1100.15 282.293 1127.79 269.425C1155.91 256.08 1188.32 249.408 1225.02 249.408C1260.29 249.408 1290.79 255.604 1316.53 267.995C1342.74 280.387 1363 298.021 1377.3 320.898C1392.07 343.775 1399.93 370.942 1400.89 402.398H1309.38C1308.43 379.997 1300.32 362.601 1285.07 350.21C1269.82 337.341 1249.33 330.907 1223.59 330.907C1195.47 330.907 1172.83 337.341 1155.68 350.21C1138.99 362.601 1130.65 379.759 1130.65 401.683C1130.65 420.271 1135.66 435.045 1145.67 446.007C1156.15 456.493 1172.36 464.357 1194.28 469.599L1276.49 488.187C1321.3 497.719 1354.66 514.162 1376.58 537.515C1398.51 560.392 1409.47 591.372 1409.47 630.453C1409.47 662.386 1401.6 690.505 1385.88 714.812C1370.15 739.119 1347.75 757.945 1318.67 771.29C1290.08 784.158 1256.48 790.592 1217.87 790.592C1181.17 790.592 1149 784.397 1121.36 772.005C1093.72 759.137 1072.03 741.264 1056.3 718.387C1041.05 695.51 1032.95 668.582 1032 637.602H1123.5C1123.98 659.526 1132.56 676.922 1149.24 689.791C1166.4 702.182 1189.51 708.378 1218.59 708.378C1249.09 708.378 1273.16 702.182 1290.79 689.791C1308.9 676.922 1317.96 660.003 1317.96 639.032C1317.96 620.921 1313.19 606.623 1303.66 596.138C1294.13 585.176 1278.64 577.55 1257.19 573.261L1174.26 554.673C1129.94 545.141 1096.34 527.983 1073.46 503.2C1050.58 477.94 1039.15 445.054 1039.15 404.543Z" fill="white"/>
<path d="M3558.59 788.224H3469.02V644H3558.59V667.281H3485.4L3494.27 659.192V704.373H3551.88V726.668H3494.27V773.032L3485.4 764.943H3558.59V788.224Z" fill="white"/>
<path d="M3380.28 790.593C3366.2 790.593 3353.97 787.567 3343.58 781.517C3333.32 775.335 3325.3 766.72 3319.51 755.671C3313.86 744.491 3311.03 731.338 3311.03 716.212C3311.03 701.217 3313.92 688.13 3319.71 676.95C3325.63 665.77 3333.91 657.089 3344.57 650.907C3355.22 644.725 3367.52 641.634 3381.46 641.634C3392.91 641.634 3403.16 643.738 3412.24 647.947C3421.32 652.156 3428.81 658.075 3434.73 665.704C3440.65 673.201 3444.4 682.145 3445.98 692.536H3419.34C3416.84 684.118 3412.17 677.608 3405.34 673.004C3398.63 668.269 3390.41 665.901 3380.67 665.901C3371.99 665.901 3364.36 667.94 3357.79 672.017C3351.34 676.095 3346.34 681.882 3342.79 689.38C3339.24 696.877 3337.47 705.821 3337.47 716.212C3337.47 726.208 3339.24 735.021 3342.79 742.65C3346.34 750.147 3351.34 756 3357.79 760.209C3364.36 764.287 3371.99 766.325 3380.67 766.325C3390.54 766.325 3398.96 763.958 3405.93 759.223C3413.03 754.487 3417.76 748.108 3420.13 740.085H3446.37C3444.53 750.081 3440.52 758.894 3434.34 766.523C3428.29 774.151 3420.59 780.07 3411.25 784.279C3402.05 788.488 3391.72 790.593 3380.28 790.593Z" fill="white"/>
<path d="M3627.98 590.928H3603.12V446.705H3628.17L3703.15 560.15H3695.85V446.705H3720.71V590.928H3695.85L3620.68 477.68H3627.98V590.928Z" fill="white"/>
<path d="M3481.05 590.928H3455.01L3507.1 446.705H3532.94L3585.03 590.928H3558.4L3546.75 557.585H3492.89L3481.05 590.928ZM3516.77 489.715L3500.19 536.277H3539.45L3522.88 489.715C3522.36 487.742 3521.76 485.769 3521.11 483.796C3520.45 481.823 3520.05 480.113 3519.92 478.667C3519.66 479.982 3519.2 481.692 3518.54 483.796C3518.02 485.769 3517.42 487.742 3516.77 489.715Z" fill="white"/>
<path d="M3344.17 590.928H3319.31V446.705H3344.37L3419.34 560.15H3412.04V446.705H3436.9V590.928H3412.04L3336.87 477.68H3344.17V590.928Z" fill="white"/>
<path d="M3456.51 249.408V393.632H3431.25V249.408H3456.51Z" fill="white"/>
<path d="M3344.56 249.408V393.632H3319.31V249.408H3344.56ZM3408.49 272.689H3321.28V249.408H3408.49V272.689ZM3398.23 334.64H3320.89V311.951H3398.23V334.64Z" fill="white"/>
</svg>
