<svg width="1040" height="1040" viewBox="0 0 1040 1040" fill="none" xmlns="http://www.w3.org/2000/svg">
<path d="M406.837 620.858C310.798 614.022 235.005 533.902 235.004 436.042L235.004 386.366C235.005 261.821 331.775 160.054 453.933 151.907L453.933 93.1529C453.933 79.1899 468.479 65.9994 482.431 65.9993C496.382 65.9994 512.899 79.1899 512.899 93.1529L512.899 151.655L546.533 152.072L546.533 93.1529C546.533 79.1899 563.05 65.9994 577.002 65.9994C590.953 65.9994 605.499 79.1899 605.499 93.1529L605.499 152.495L805 154.146L406.837 620.858Z" fill="#1C1C1C"/>
<path d="M633.163 419.822C729.202 426.659 804.995 506.778 804.996 604.639V654.314C804.995 778.86 708.225 880.626 586.067 888.773V947.528C586.067 961.491 571.521 974.681 557.569 974.681C543.618 974.681 527.101 961.491 527.101 947.528V889.026L493.467 888.609V947.528C493.467 961.491 476.95 974.681 462.998 974.681C449.047 974.681 434.501 961.491 434.501 947.528V888.186L235 886.535L633.163 419.822Z" fill="#1C1C1C"/>
</svg>
