<svg width="496" height="109" viewBox="0 0 496 109" fill="none" xmlns="http://www.w3.org/2000/svg">
<g clip-path="url(#clip0_370_634)">
<g clip-path="url(#clip1_370_634)">
<rect width="109" height="109" rx="29" fill="#94DD78"/>
<path d="M63.9988 11.709C65.5269 11.709 66.7656 12.9499 66.7656 14.4807V18.2046L85.6885 18.3622L42.3662 69.1895C33.1313 67.2904 26.1858 59.1043 26.1855 49.2913V43.8453C26.1855 30.1912 36.7847 19.0333 50.1647 18.1402V14.4807C50.1647 12.9499 51.4034 11.709 52.9315 11.709C54.4596 11.709 55.6983 12.9499 55.6983 14.4807V18.1131L61.232 18.1589V14.4807C61.232 12.9499 62.4707 11.709 63.9988 11.709Z" fill="#1C1C1C"/>
<path d="M66.9594 39.5977C77.4873 40.3466 85.7958 49.1235 85.7959 59.844V65.2859C85.7957 78.9296 75.1878 90.078 61.7967 90.9704V94.6278C61.7967 96.1574 60.5569 97.3975 59.0276 97.3975C57.4982 97.3975 56.2585 96.1574 56.2585 94.6278V90.9981L50.7202 90.9524V94.6278C50.7202 96.1574 49.4804 97.3975 47.9511 97.3975C46.4217 97.3975 45.1819 96.1574 45.1819 94.6278V90.9061L23.3125 90.7252L66.9594 39.5977Z" fill="#1C1C1C"/>
</g>
<path d="M384.375 89.5499C382.508 89.5499 381.142 89.2499 380.275 88.6499C379.408 88.1166 378.875 87.3832 378.675 86.4499C378.475 85.5166 378.375 84.4832 378.375 83.3499V25.6499C378.375 23.3832 378.808 21.8166 379.675 20.9499C380.608 20.0832 382.275 19.6499 384.675 19.6499H423.675C424.808 19.6499 425.808 19.7832 426.675 20.0499C427.608 20.2499 428.342 20.7832 428.875 21.6499C429.408 22.4499 429.675 23.8166 429.675 25.7499C429.675 27.6166 429.375 28.9832 428.775 29.8499C428.242 30.7166 427.508 31.2499 426.575 31.4499C425.708 31.6499 424.708 31.7499 423.575 31.7499H390.475V48.5499H413.275C414.408 48.5499 415.375 48.6832 416.175 48.9499C416.975 49.1499 417.608 49.6166 418.075 50.3499C418.542 51.0832 418.775 52.3166 418.775 54.0499C418.775 55.7166 418.542 56.9499 418.075 57.7499C417.608 58.4832 416.942 58.9499 416.075 59.1499C415.208 59.2832 414.208 59.3499 413.075 59.3499H390.475V77.3499H423.675C424.808 77.3499 425.808 77.4832 426.675 77.7499C427.608 77.9499 428.342 78.4832 428.875 79.3499C429.408 80.2166 429.675 81.5832 429.675 83.4499C429.675 85.3166 429.375 86.6832 428.775 87.5499C428.242 88.4166 427.508 88.9499 426.575 89.1499C425.708 89.4166 424.708 89.5499 423.575 89.5499H384.375Z" fill="#1C1C1C"/>
<path d="M322.359 89.4499C320.493 89.4499 319.126 89.1832 318.259 88.6499C317.459 88.1166 316.926 87.3832 316.659 86.4499C316.459 85.4499 316.359 84.4166 316.359 83.3499V25.6499C316.359 24.5832 316.493 23.6166 316.759 22.7499C317.026 21.8166 317.559 21.0832 318.359 20.5499C319.226 19.9499 320.593 19.6499 322.459 19.6499H343.859C346.926 19.6499 349.826 20.1499 352.559 21.1499C355.359 22.0832 357.859 23.5499 360.059 25.5499C362.259 27.4832 363.993 29.9499 365.259 32.9499C366.593 35.8832 367.259 39.3166 367.259 43.2499C367.259 45.8499 366.859 48.4499 366.059 51.0499C365.259 53.5832 364.059 55.9499 362.459 58.1499C360.926 60.2832 358.959 62.1166 356.559 63.6499C354.159 65.1832 351.326 66.1832 348.059 66.6499H328.459V83.4499C328.459 84.5166 328.326 85.5166 328.059 86.4499C327.859 87.3832 327.326 88.1166 326.459 88.6499C325.659 89.1832 324.293 89.4499 322.359 89.4499ZM364.959 87.9499C363.026 89.2832 361.426 89.7832 360.159 89.4499C358.959 89.1166 357.759 88.0499 356.559 86.2499L339.759 60.8499L353.259 59.0499L366.559 79.2499C367.493 80.5832 368.059 81.7166 368.259 82.6499C368.459 83.5832 368.293 84.4499 367.759 85.2499C367.226 86.0499 366.293 86.9499 364.959 87.9499ZM328.459 54.6499H345.359C346.559 54.6499 347.726 54.4499 348.859 54.0499C350.059 53.5832 351.126 52.8832 352.059 51.9499C352.993 50.9499 353.726 49.7499 354.259 48.3499C354.859 46.8832 355.159 45.1499 355.159 43.1499C355.159 40.7499 354.693 38.7166 353.759 37.0499C352.826 35.3166 351.493 34.0166 349.759 33.1499C348.093 32.2166 346.059 31.7499 343.659 31.7499H328.459V54.6499Z" fill="#1C1C1C"/>
<path d="M308.153 81.0499C308.82 82.3166 309.153 83.4499 309.153 84.4499C309.22 85.3832 308.953 86.2166 308.353 86.9499C307.753 87.6166 306.753 88.3166 305.353 89.0499C303.22 90.0499 301.553 90.3166 300.353 89.8499C299.22 89.3832 298.153 88.0832 297.153 85.9499L274.853 38.8499L252.653 85.9499C251.653 88.0166 250.553 89.2499 249.353 89.6499C248.153 90.1166 246.486 89.8832 244.353 88.9499C243.02 88.2832 242.02 87.5832 241.353 86.8499C240.753 86.1166 240.486 85.2499 240.553 84.2499C240.686 83.1832 241.12 81.9166 241.853 80.4499L269.353 23.1499C269.886 22.0832 270.653 21.2499 271.653 20.6499C272.72 19.9832 273.82 19.6499 274.953 19.6499C275.753 19.6499 276.486 19.7832 277.153 20.0499C277.82 20.3166 278.42 20.7166 278.953 21.2499C279.553 21.7832 280.053 22.4499 280.453 23.2499L308.153 81.0499ZM257.053 71.3499L261.853 61.0499H287.953L292.753 71.3499H257.053Z" fill="#1C1C1C"/>
<path d="M199.789 89.4499C197.922 89.4499 196.556 89.1832 195.689 88.6499C194.822 88.1166 194.289 87.3832 194.089 86.4499C193.889 85.4499 193.789 84.4166 193.789 83.3499V25.6499C193.789 24.5832 193.889 23.6166 194.089 22.7499C194.356 21.8166 194.922 21.0832 195.789 20.5499C196.656 19.9499 198.022 19.6499 199.889 19.6499H221.089C224.022 19.6499 226.889 20.1499 229.689 21.1499C232.489 22.1499 234.989 23.6499 237.189 25.6499C239.456 27.6499 241.222 30.1166 242.489 33.0499C243.822 35.9832 244.489 39.4166 244.489 43.3499C244.489 47.2166 243.822 50.6166 242.489 53.5499C241.222 56.4166 239.456 58.8499 237.189 60.8499C234.922 62.8499 232.389 64.3499 229.589 65.3499C226.856 66.3499 223.989 66.8499 220.989 66.8499H205.889V83.4499C205.889 84.5166 205.756 85.5166 205.489 86.4499C205.289 87.3832 204.756 88.1166 203.889 88.6499C203.089 89.1832 201.722 89.4499 199.789 89.4499ZM205.889 54.6499H221.089C223.156 54.6499 225.022 54.2499 226.689 53.4499C228.422 52.5832 229.822 51.3166 230.889 49.6499C231.956 47.9166 232.489 45.7499 232.489 43.1499C232.489 40.8166 231.989 38.8166 230.989 37.1499C230.056 35.4166 228.722 34.0832 226.989 33.1499C225.322 32.2166 223.322 31.7499 220.989 31.7499H205.889V54.6499Z" fill="#1C1C1C"/>
<path d="M160.11 90.4498C157.11 90.4498 154.377 90.0831 151.91 89.3498C149.51 88.6165 147.377 87.6831 145.51 86.5498C143.71 85.4165 142.177 84.2498 140.91 83.0498C139.643 81.8498 138.71 80.7498 138.11 79.7498C137.243 78.5498 136.677 77.4831 136.41 76.5498C136.143 75.6165 136.21 74.7165 136.61 73.8498C137.077 72.9165 137.91 71.9498 139.11 70.9498C140.31 69.8831 141.41 69.3498 142.41 69.3498C143.477 69.2831 144.477 69.5831 145.41 70.2498C146.41 70.9165 147.377 71.8498 148.31 73.0498C149.91 75.1831 151.71 76.7165 153.71 77.6498C155.71 78.5165 157.71 78.9498 159.71 78.9498C162.31 78.9498 164.577 78.6165 166.51 77.9498C168.443 77.2165 169.943 76.1498 171.01 74.7498C172.143 73.3498 172.71 71.5498 172.71 69.3498C172.71 67.5498 172.143 66.0831 171.01 64.9498C169.943 63.7498 168.51 62.7498 166.71 61.9498C164.91 61.0831 162.877 60.3165 160.61 59.6498C158.41 58.9165 156.177 58.1165 153.91 57.2498C152.31 56.7165 150.71 56.0831 149.11 55.3498C147.51 54.5498 146.01 53.6498 144.61 52.6498C143.277 51.6498 142.077 50.4831 141.01 49.1498C140.01 47.7498 139.21 46.1498 138.61 44.3498C138.01 42.5498 137.71 40.4498 137.71 38.0498C137.71 34.2498 138.643 30.9165 140.51 28.0498C142.377 25.1165 144.977 22.8165 148.31 21.1498C151.643 19.4165 155.443 18.5498 159.71 18.5498C162.443 18.5498 164.877 18.8165 167.01 19.3498C169.21 19.8165 171.077 20.4498 172.61 21.2498C174.21 21.9831 175.51 22.7498 176.51 23.5498C177.577 24.2831 178.343 24.9165 178.81 25.4498C180.343 26.9831 181.177 28.2831 181.31 29.3498C181.51 30.3498 180.91 31.7165 179.51 33.4498C178.11 35.2498 176.743 36.2498 175.41 36.4498C174.143 36.5831 172.71 36.0498 171.11 34.8498C170.043 33.7165 168.977 32.8165 167.91 32.1498C166.843 31.4165 165.643 30.8831 164.31 30.5498C163.043 30.2165 161.477 30.0498 159.61 30.0498C158.277 30.0498 156.977 30.2498 155.71 30.6498C154.51 30.9831 153.477 31.5165 152.61 32.2498C151.743 32.9165 151.043 33.7498 150.51 34.7498C150.043 35.7498 149.81 36.8831 149.81 38.1498C149.81 39.8831 150.277 41.3165 151.21 42.4498C152.21 43.5165 153.543 44.4165 155.21 45.1498C156.877 45.8165 158.743 46.4498 160.81 47.0498C162.877 47.6498 164.977 48.2831 167.11 48.9498C169.31 49.6831 171.477 50.5498 173.61 51.5498C175.743 52.5498 177.643 53.8165 179.31 55.3498C180.977 56.8165 182.31 58.6831 183.31 60.9498C184.31 63.1498 184.81 65.8498 184.81 69.0498C184.81 72.7165 184.11 75.9165 182.71 78.6498C181.31 81.3831 179.41 83.6165 177.01 85.3498C174.61 87.0831 171.943 88.3498 169.01 89.1498C166.077 90.0165 163.11 90.4498 160.11 90.4498Z" fill="#1C1C1C"/>
<path d="M462.559 87.7493V69.4116H474.055V71.7934H465.325V77.3807H473.456V79.7535H465.325V85.3676H474.163V87.7493H462.559Z" fill="#1C1C1C"/>
<path d="M459.247 75.3752H456.454C456.346 74.7783 456.146 74.253 455.854 73.7993C455.561 73.3456 455.203 72.9606 454.779 72.6442C454.356 72.3279 453.881 72.0891 453.356 71.9279C452.836 71.7667 452.284 71.6862 451.699 71.6862C450.643 71.6862 449.697 71.9518 448.861 72.4831C448.031 73.0143 447.374 73.7933 446.891 74.82C446.413 75.8468 446.175 77.1003 446.175 78.5807C446.175 80.073 446.413 81.3326 446.891 82.3593C447.374 83.386 448.034 84.162 448.87 84.6873C449.705 85.2126 450.646 85.4753 451.69 85.4753C452.269 85.4753 452.818 85.3977 453.338 85.2425C453.863 85.0813 454.338 84.8455 454.762 84.5351C455.185 84.2247 455.543 83.8456 455.836 83.3979C456.134 82.9443 456.34 82.4249 456.454 81.8399L459.247 81.8489C459.098 82.7503 458.809 83.58 458.379 84.3381C457.955 85.0902 457.409 85.7409 456.74 86.2901C456.078 86.8333 455.32 87.2541 454.466 87.5526C453.612 87.851 452.681 88.0003 451.672 88.0003C450.085 88.0003 448.67 87.6242 447.428 86.8721C446.187 86.114 445.208 85.0305 444.491 83.6218C443.781 82.213 443.426 80.5327 443.426 78.5807C443.426 76.6228 443.784 74.9424 444.5 73.5396C445.217 72.1309 446.196 71.0504 447.437 70.2983C448.679 69.5402 450.091 69.1611 451.672 69.1611C452.645 69.1611 453.553 69.3014 454.394 69.582C455.242 69.8566 456.003 70.2625 456.678 70.7997C457.352 71.331 457.91 71.9816 458.352 72.7517C458.794 73.5157 459.092 74.3902 459.247 75.3752Z" fill="#1C1C1C"/>
<path d="M495.309 45.2061V63.5438H492.766L483.445 50.0949H483.275V63.5438H480.508V45.2061H483.069L492.399 58.6728H492.569V45.2061H495.309Z" fill="#1C1C1C"/>
<path d="M464.402 63.5438H461.465L468.064 45.2061H471.26L477.86 63.5438H474.923L469.738 48.5369H469.595L464.402 63.5438ZM464.894 56.3627H474.421V58.6907H464.894V56.3627Z" fill="#1C1C1C"/>
<path d="M458.817 45.2061V63.5438H456.274L446.953 50.0949H446.782V63.5438H444.016V45.2061H446.576L455.906 58.6728H456.077V45.2061H458.817Z" fill="#1C1C1C"/>
<path d="M461.558 21V39.3377H458.791V21H461.558Z" fill="#1C1C1C"/>
<path d="M444.016 39.3377V21H455.387V23.3818H446.782V28.969H454.572V31.3418H446.782V39.3377H444.016Z" fill="#1C1C1C"/>
</g>
<defs>
<clipPath id="clip0_370_634">
<rect width="495.25" height="109" fill="white"/>
</clipPath>
<clipPath id="clip1_370_634">
<rect width="109" height="109" rx="29" fill="white"/>
</clipPath>
</defs>
</svg>
